<svg xmlns="http://www.w3.org/2000/svg" width="32" height="32" viewBox="0 0 32 32"><defs><style>.cls-1 { fill: #95e1d3; fill-rule: evenodd; }</style></defs><path id="BOOK_2" class="cls-1" d="M422.065 2504.89l-14.471 5.99a1.53 1.53 0 0 1-1.188 0l-14.471-5.99a1.5 1.5 0 0 1-.935-1.39v-23a1.5 1.5 0 0 1 1.5-1.5 1.55 1.55 0 0 1 .573.11v.01h.013l13.914 5.76 13.911-5.76h.013v-.01a1.55 1.55 0 0 1 .573-.11 1.5 1.5 0 0 1 1.5 1.5v23a1.5 1.5 0 0 1-.932 1.39zm-16.565-17.39l-11.5-4.76v19.76l11.5 4.76v-19.76zm14.5-4.76l-11.5 4.76v19.76l11.5-4.76v-19.76zm-9.121 6.89l5.5-2.5a1.593 1.593 0 0 1 .621-.13 1.5 1.5 0 0 1 .621 2.87l-5.5 2.5a1.6 1.6 0 0 1-.621.13 1.5 1.5 0 0 1-.621-2.87zm0 5.5l5.5-2.5a1.593 1.593 0 0 1 .621-.13 1.5 1.5 0 0 1 .621 2.87l-5.5 2.5v-.01a1.445 1.445 0 0 1-.621.14 1.5 1.5 0 0 1-.621-2.87zm0 5.5l5.5-2.5a1.593 1.593 0 0 1 .621-.13 1.5 1.5 0 0 1 .621 2.87l-5.5 2.5a1.6 1.6 0 0 1-.621.13 1.5 1.5 0 0 1-.621-2.87zm-13.879-13.63a1.6 1.6 0 0 1 .621.13l5.5 2.5a1.5 1.5 0 0 1-.621 2.87 1.593 1.593 0 0 1-.621-.13l-5.5-2.5a1.5 1.5 0 0 1 .621-2.87zm0 5.5a1.6 1.6 0 0 1 .621.13l5.5 2.5a1.5 1.5 0 0 1-.621 2.87 1.439 1.439 0 0 1-.621-.14v.01l-5.5-2.5a1.5 1.5 0 0 1 .621-2.87zm0 5.5a1.6 1.6 0 0 1 .621.13l5.5 2.5a1.5 1.5 0 0 1-.621 2.87 1.593 1.593 0 0 1-.621-.13l-5.5-2.5a1.5 1.5 0 0 1 .621-2.87z" transform="translate(-391 -2479)"/></svg>