<svg xmlns="http://www.w3.org/2000/svg" width="28" height="32" viewBox="0 0 28 32"><defs><style>.cls-1 { fill: #95e1d3; fill-rule: evenodd; }</style></defs><path id="EQUALIZER" class="cls-1" d="M1002.5 4200.5h-3a1.5 1.5 0 0 1-1.5-1.5v-6a1.5 1.5 0 0 1 1.5-1.5h3a1.5 1.5 0 0 1 1.5 1.5v6a1.5 1.5 0 0 1-1.5 1.5zm-3-15a1.5 1.5 0 0 1 3 0v4.5h-3v-4.5zm-8 23h-3a1.5 1.5 0 0 1-1.5-1.5v-6a1.5 1.5 0 0 1 1.5-1.5h3a1.5 1.5 0 0 1 1.5 1.5v6a1.5 1.5 0 0 1-1.5 1.5zm-3-23a1.5 1.5 0 0 1 3 0v12.5h-3v-12.5zm-8 19h-3a1.5 1.5 0 0 1-1.5-1.5v-6a1.5 1.5 0 0 1 1.5-1.5h3a1.5 1.5 0 0 1 1.5 1.5v6a1.5 1.5 0 0 1-1.5 1.5zm-3-19a1.5 1.5 0 0 1 3 0v8.5h-3v-8.5zm3 29a1.5 1.5 0 0 1-3 0v-8.5h3v8.5zm11 0a1.5 1.5 0 0 1-3 0v-4.5h3v4.5zm11 0a1.5 1.5 0 0 1-3 0v-12.5h3v12.5z" transform="translate(-976 -4184)"/></svg>